# xmcd
#
# Track frame offsets:
#	150
#	14359
#	32059
#	45803
#	59211
#	77337
#	95764
#	113600
#	129846
#	149354
#
# Disc length: 2232 seconds
#
# Revision: 1
# Processed by: cddbd v1.5.1PL2 Copyright (c) Steve Scherf et al.
# Submitted via: audiograbber 1.83.01
#
DISCID=7908b60a
DTITLE=Bobby Carson Band - The Other Side Of Midnight
DYEAR=2004
DGENRE=Blues
TTITLE0=Life Goes On
TTITLE1=Slow This Mutha Down
TTITLE2=White Line
TTITLE3=Hey Marissa
TTITLE4=Pull Myself Together
TTITLE5=I Think I'm Gonna Pop
TTITLE6=Walkin
TTITLE7=Evil Train
TTITLE8=Mad Man Blues
TTITLE9=Skyy Blue Eyes
EXTD=
EXTT0=
EXTT1=
EXTT2=
EXTT3=
EXTT4=
EXTT5=
EXTT6=
EXTT7=
EXTT8=
EXTT9=
PLAYORDER=
